<?xml version="1.0" standalone="no"?>
<!DOCTYPE svg PUBLIC "-//W3C//DTD SVG 20010904//EN"
 "http://www.w3.org/TR/2001/REC-SVG-20010904/DTD/svg10.dtd">
<svg version="1.0" xmlns="http://www.w3.org/2000/svg"
 width="512.000000pt" height="512.000000pt" viewBox="0 0 512.000000 512.000000"
 preserveAspectRatio="xMidYMid meet">

<g transform="translate(0.000000,512.000000) scale(0.100000,-0.100000)"
fill="#000000" stroke="none">
<path d="M2415 4438 c-425 -47 -806 -359 -944 -773 -179 -536 50 -1111 552
-1386 l49 -27 -53 -17 c-78 -25 -251 -108 -328 -156 -270 -171 -473 -393 -614
-675 -90 -180 -153 -404 -164 -584 -5 -94 -5 -95 22 -122 57 -57 147 -23 159
60 3 20 8 64 11 97 4 33 13 89 21 125 106 471 427 857 869 1041 723 302 1555
-17 1890 -725 78 -164 120 -317 140 -509 8 -75 41 -117 92 -117 45 0 69 14 88
50 13 25 14 44 5 122 -64 562 -394 1043 -890 1297 -63 32 -150 71 -192 86
l-78 28 76 43 c651 371 783 1249 269 1793 -251 266 -604 392 -980 349z m312
-193 c213 -40 379 -130 525 -283 119 -125 196 -259 240 -420 19 -65 22 -104
22 -247 0 -156 -3 -177 -28 -259 -118 -388 -445 -660 -834 -694 -484 -42 -907
262 -1028 738 -25 100 -26 333 -1 434 109 437 489 742 928 745 53 1 133 -6
176 -14z"/>
</g>
</svg>
