<?xml version="1.0" standalone="no"?>
<!DOCTYPE svg PUBLIC "-//W3C//DTD SVG 20010904//EN"
 "http://www.w3.org/TR/2001/REC-SVG-20010904/DTD/svg10.dtd">
<svg version="1.0" xmlns="http://www.w3.org/2000/svg"
 width="860.000000pt" height="797.000000pt" viewBox="0 0 860.000000 797.000000"
 preserveAspectRatio="xMidYMid meet">

<g transform="translate(0.000000,797.000000) scale(0.100000,-0.100000)"
fill="#000000" stroke="none">
<path d="M390 7547 c-100 -53 -109 -202 -14 -263 14 -10 121 -39 238 -66 116
-26 279 -63 361 -82 183 -43 358 -81 445 -96 139 -25 351 -137 418 -222 36
-46 107 -313 122 -463 4 -44 55 -339 113 -655 121 -654 307 -1673 468 -2560
110 -604 120 -652 205 -914 62 -195 104 -275 189 -362 71 -73 127 -107 225
-140 53 -18 136 -19 2030 -22 1913 -2 1976 -2 2010 16 45 24 80 85 80 138 0
46 -28 94 -73 128 l-28 21 -1926 6 c-1850 6 -1927 7 -1981 25 -119 40 -206
160 -272 373 -30 97 -112 519 -103 534 2 4 887 7 1966 7 2099 0 2080 0 2238
49 80 25 173 85 216 139 62 77 94 146 202 435 60 161 154 414 209 562 276 740
420 1126 479 1285 120 318 122 385 19 486 -63 61 -132 90 -258 110 -48 7 -96
18 -107 23 -22 12 -1618 13 -4091 2 -789 -3 -1438 -4 -1442 -1 -3 3 -23 91
-43 195 -68 359 -83 435 -100 492 -43 153 -104 274 -173 346 -120 125 -353
236 -600 287 -53 10 -158 33 -232 50 -448 102 -712 160 -728 160 -10 0 -38
-10 -62 -23z m5986 -1849 c-3 -24 -60 -560 -126 -1193 -66 -632 -123 -1169
-126 -1192 l-6 -43 -449 0 -449 0 0 1230 0 1230 193 3 c105 1 367 3 581 5
l388 2 -6 -42z m1485 23 c55 -17 89 -48 89 -80 0 -15 -12 -50 -26 -77 -14 -27
-27 -62 -29 -79 -2 -16 -60 -183 -130 -370 -129 -346 -296 -796 -477 -1280
-55 -148 -103 -274 -107 -280 -4 -5 -13 -30 -20 -55 -27 -95 -76 -165 -136
-198 -25 -14 -79 -17 -350 -22 -176 -3 -323 -3 -327 0 -4 3 -3 41 2 85 5 44
16 145 24 225 9 80 63 594 121 1143 58 549 105 1001 105 1004 0 2 276 3 613 0
432 -3 623 -7 648 -16z m-4315 -2 c3 -6 44 -367 90 -802 120 -1139 133 -1262
154 -1460 11 -97 20 -182 20 -187 0 -6 -177 -10 -490 -10 -269 0 -490 3 -490
8 0 4 -52 293 -116 642 -64 349 -164 899 -223 1222 l-108 588 431 3 c237 1
497 3 578 5 98 1 149 -2 154 -9z m1454 -1217 l0 -1229 -322 -6 c-424 -9 -648
-9 -648 1 0 4 -4 45 -10 92 -5 47 -16 153 -25 235 -8 83 -33 319 -55 525 -22
206 -67 634 -100 950 -33 316 -63 594 -66 618 l-6 42 616 0 616 0 0 -1228z"/>
<path d="M3649 1476 c-116 -33 -229 -125 -286 -232 -158 -296 15 -651 343
-705 145 -24 302 30 406 139 231 242 162 627 -139 770 -72 34 -86 37 -178 39
-60 1 -118 -3 -146 -11z m188 -261 c95 -28 164 -134 149 -228 -23 -143 -166
-225 -291 -168 -82 38 -125 105 -125 198 0 93 59 172 147 200 51 16 61 15 120
-2z"/>
<path d="M6168 1471 c-145 -47 -269 -174 -312 -320 -22 -76 -21 -204 4 -282
54 -175 199 -299 387 -331 167 -28 354 56 452 203 105 156 109 376 12 528 -39
60 -125 142 -177 169 -106 54 -257 68 -366 33z m247 -275 c87 -47 128 -164 91
-260 -29 -77 -115 -136 -196 -136 -87 0 -178 69 -200 150 -51 189 134 339 305
246z"/>
</g>
</svg>
