<?xml version="1.0" standalone="no"?>
<!DOCTYPE svg PUBLIC "-//W3C//DTD SVG 20010904//EN"
 "http://www.w3.org/TR/2001/REC-SVG-20010904/DTD/svg10.dtd">
<svg version="1.0" xmlns="http://www.w3.org/2000/svg"
 width="256.000000pt" height="226.000000pt" viewBox="0 0 256.000000 256.000000"
 preserveAspectRatio="xMidYMid meet">

<g transform="translate(0.000000,256.000000) scale(0.100000,-0.100000)"
fill="#000000" stroke="none">
<path d="M565 2404 c-88 -19 -213 -79 -287 -139 -237 -188 -339 -563 -237
-869 67 -199 207 -388 464 -627 139 -129 659 -578 699 -603 40 -24 114 -24
152 0 41 27 568 481 700 603 377 351 520 617 501 931 -11 174 -70 333 -172
462 -132 168 -363 270 -575 254 -190 -14 -337 -87 -469 -233 l-61 -68 -61 68
c-96 106 -208 178 -334 213 -78 22 -238 26 -320 8z m264 -149 c131 -31 245
-114 337 -245 57 -82 68 -90 114 -90 46 0 57 8 114 90 92 131 206 214 337 245
277 65 551 -100 645 -388 23 -70 27 -100 28 -207 1 -105 -3 -137 -22 -200 -54
-170 -133 -283 -351 -501 -152 -151 -730 -659 -751 -659 -21 0 -599 508 -751
659 -218 218 -297 331 -351 501 -19 63 -23 95 -22 200 1 107 5 137 28 207 94
288 368 453 645 388z"/>
</g>
</svg>
