<?xml version="1.0" standalone="no"?>
<!DOCTYPE svg PUBLIC "-//W3C//DTD SVG 20010904//EN"
 "http://www.w3.org/TR/2001/REC-SVG-20010904/DTD/svg10.dtd">
<svg version="1.0" xmlns="http://www.w3.org/2000/svg"
 width="820.000000pt" height="651.000000pt" viewBox="0 0 920.000000 921.000000"
 preserveAspectRatio="xMidYMid meet">

<g transform="translate(0.000000,921.000000) scale(0.100000,-0.100000)"
fill="#000000" stroke="none">
<path d="M4290 9199 c-598 -40 -1204 -205 -1741 -474 -1599 -801 -2595 -2457
-2546 -4230 20 -704 175 -1321 487 -1945 622 -1241 1787 -2145 3145 -2438 144
-32 344 -62 545 -84 179 -20 722 -16 900 5 465 56 828 146 1209 298 1568 627
2666 2045 2875 3714 176 1399 -310 2812 -1314 3815 -603 602 -1335 1014 -2176
1224 -402 101 -935 145 -1384 115z m120 -1541 l0 -1161 -162 7 c-446 18 -850
72 -1280 171 -133 31 -368 93 -375 99 -2 2 24 76 57 165 211 575 493 1044 826
1373 184 182 355 304 542 388 126 56 299 110 385 119 4 1 7 -522 7 -1161z
m619 1097 c267 -97 473 -236 711 -481 316 -325 584 -779 786 -1329 44 -119 59
-172 51 -176 -50 -27 -526 -137 -772 -178 -269 -45 -559 -74 -857 -87 l-158
-7 0 1160 0 1161 83 -18 c45 -10 115 -30 156 -45z m976 -165 c536 -191 1035
-495 1470 -897 135 -124 340 -345 340 -366 0 -18 -188 -129 -385 -228 -155
-78 -458 -209 -482 -209 -5 0 -10 6 -13 13 -41 123 -157 412 -220 548 -208
445 -443 800 -729 1098 -39 41 -62 70 -51 66 11 -4 43 -15 70 -25z m-2842 -74
c-251 -262 -469 -588 -669 -1001 -84 -173 -195 -441 -238 -571 l-17 -52 -137
55 c-180 72 -446 203 -604 299 l-128 77 63 70 c292 333 648 628 1025 851 163
97 425 225 592 290 80 31 154 61 165 66 42 19 35 7 -52 -84z m-1878 -1566
c167 -103 454 -248 670 -340 94 -39 171 -73 172 -74 2 -1 -6 -34 -17 -72 -28
-95 -104 -457 -134 -639 -50 -297 -81 -620 -93 -977 l-6 -198 -750 0 -750 0 7
153 c33 749 272 1484 689 2120 39 59 73 107 76 107 3 0 65 -36 136 -80z m6846
-38 c114 -174 182 -295 274 -486 247 -510 384 -1055 411 -1628 l7 -148 -762 0
-761 0 0 43 c-1 254 -35 697 -75 976 -42 285 -137 756 -171 846 -4 9 3 18 18
24 369 152 630 279 843 411 72 44 132 80 135 80 3 0 39 -53 81 -118z m-5341
-577 c289 -72 474 -108 736 -144 279 -38 502 -59 715 -67 l169 -7 0 -734 0
-733 -1075 0 -1075 0 0 113 c0 392 75 1015 170 1426 28 120 46 191 55 218 3
10 14 9 47 -3 24 -8 140 -39 258 -69z m3943 -82 c109 -465 187 -1094 187
-1514 l0 -89 -1065 0 -1065 0 0 733 0 734 158 7 c536 23 1077 106 1569 240 87
24 163 44 169 45 6 0 27 -70 47 -156z m-4834 -2175 c14 -226 32 -390 67 -618
29 -191 104 -558 139 -686 24 -87 24 -104 2 -104 -23 0 -330 -137 -507 -226
-102 -52 -243 -130 -315 -174 -71 -44 -132 -80 -135 -80 -3 0 -33 42 -67 93
-248 370 -450 821 -563 1252 -64 244 -87 374 -125 693 l-5 42 748 0 748 0 13
-192z m2511 -393 l0 -585 -64 0 c-224 0 -795 -60 -1106 -116 -181 -33 -665
-150 -742 -179 -12 -5 -21 19 -46 122 -54 219 -111 539 -142 793 -18 156 -40
414 -40 483 l0 67 1070 0 1070 0 0 -585z m2500 548 c-1 -184 -67 -736 -121
-1013 -20 -104 -89 -402 -94 -408 -1 -2 -87 20 -191 47 -509 135 -1030 215
-1556 237 l-158 7 0 584 0 583 1060 0 1060 0 0 -37z m1895 0 c-2 -21 -10 -81
-16 -133 -71 -622 -317 -1288 -672 -1817 -34 -51 -64 -93 -67 -93 -3 0 -63 36
-135 80 -210 130 -601 320 -810 396 -27 9 -51 18 -53 20 -2 1 11 54 28 119 92
357 173 871 201 1288 l12 177 759 0 758 0 -5 -37z m-4395 -2673 c0 -638 -3
-1160 -7 -1160 -5 0 -46 9 -93 19 -322 72 -647 275 -921 576 -294 323 -544
755 -735 1271 -36 97 -64 178 -62 179 8 8 284 79 443 115 317 70 620 115 950
140 208 16 222 16 328 18 l97 2 0 -1160z m662 1150 c218 -15 441 -37 603 -61
236 -34 657 -123 847 -180 l67 -20 -43 -122 c-61 -171 -89 -240 -168 -412
-354 -772 -844 -1289 -1390 -1463 -51 -17 -117 -35 -145 -40 l-53 -9 0 1158 0
1159 64 0 c36 0 133 -5 218 -10z m2044 -446 c273 -113 699 -340 699 -371 0
-20 -209 -245 -340 -366 -277 -256 -545 -449 -895 -644 -101 -57 -340 -164
-498 -224 -86 -32 -158 -59 -161 -59 -2 0 31 37 75 83 348 359 651 863 874
1455 40 105 76 192 80 192 4 0 79 -30 166 -66z m-4863 21 c32 -103 152 -395
220 -539 205 -434 431 -775 701 -1055 45 -46 72 -81 61 -77 -574 204 -1036
481 -1492 896 -132 121 -358 362 -358 383 0 16 185 125 370 219 178 90 452
209 474 205 8 -1 19 -15 24 -32z"/>
</g>
</svg>
