<?xml version="1.0" standalone="no"?>
<!DOCTYPE svg PUBLIC "-//W3C//DTD SVG 20010904//EN"
 "http://www.w3.org/TR/2001/REC-SVG-20010904/DTD/svg10.dtd">
<svg version="1.0" xmlns="http://www.w3.org/2000/svg"
 width="512.000000pt" height="512.000000pt" viewBox="0 0 512.000000 512.000000"
 preserveAspectRatio="xMidYMid meet">

<g transform="translate(0.000000,512.000000) scale(0.100000,-0.100000)"
 stroke="none">
<path d="M2942 5104 c-18 -9 -43 -31 -55 -48 -21 -29 -22 -43 -25 -228 -4
-221 2 -248 62 -291 43 -31 129 -31 172 0 57 41 64 70 64 278 0 207 -7 237
-63 277 -39 28 -112 34 -155 12z"/>
<path d="M1976 4691 c-45 -30 -66 -70 -66 -127 0 -65 20 -93 167 -236 79 -76
121 -110 149 -118 117 -35 226 84 179 195 -16 40 -192 227 -259 276 -48 36
-124 40 -170 10z"/>
<path d="M3874 4681 c-21 -15 -87 -78 -146 -138 -76 -79 -110 -121 -118 -149
-35 -117 84 -226 195 -179 40 16 227 192 276 259 52 71 35 169 -37 217 -46 30
-122 26 -170 -10z"/>
<path d="M2865 4196 c-55 -24 -80 -66 -114 -192 -198 -734 -465 -1124 -856
-1256 l-80 -27 -3 -1085 -2 -1085 317 -104 c175 -58 363 -113 418 -124 92 -17
165 -18 920 -18 818 0 820 0 866 21 173 80 230 300 119 451 -36 49 -109 100
-159 110 -25 6 16 10 129 13 189 6 228 18 300 90 134 134 111 354 -47 459 -25
17 -61 33 -79 37 -43 8 -43 20 0 28 18 4 54 20 79 37 143 95 178 288 77 426
-36 49 -109 100 -156 109 -19 3 -34 10 -34 14 0 4 15 11 34 14 47 9 120 60
156 109 111 151 54 371 -119 451 -45 21 -55 21 -699 24 -512 2 -653 5 -649 15
49 129 130 434 152 577 21 139 31 466 16 545 -35 184 -179 331 -360 365 -74
14 -190 12 -226 -4z"/>
<path d="M388 2979 c-23 -12 -46 -35 -58 -59 -20 -39 -20 -56 -20 -1420 0
-1364 0 -1381 20 -1420 13 -26 34 -47 60 -60 37 -19 58 -20 368 -20 182 0 353
5 383 10 180 34 325 179 359 359 14 74 14 2188 0 2262 -34 180 -179 325 -359
359 -30 6 -199 10 -385 10 -310 -1 -333 -2 -368 -21z m742 -2099 c45 -23 80
-80 80 -130 0 -76 -74 -150 -150 -150 -76 0 -150 74 -150 150 0 48 35 107 78
129 48 26 93 26 142 1z"/>
</g>
</svg>
