<?xml version="1.0" standalone="no"?>
<!DOCTYPE svg PUBLIC "-//W3C//DTD SVG 20010904//EN"
 "http://www.w3.org/TR/2001/REC-SVG-20010904/DTD/svg10.dtd">
<svg version="1.0" xmlns="http://www.w3.org/2000/svg"
 width="860.000000pt" height="720.000000pt" viewBox="0 0 860.000000 720.000000"
 preserveAspectRatio="xMidYMid meet">

<g transform="translate(0.000000,720.000000) scale(0.100000,-0.100000)"
fill="#000000" stroke="none">
<path d="M1858 6789 c-115 -17 -217 -93 -267 -199 l-26 -55 -3 -462 -3 -463
-332 0 c-360 0 -409 -6 -490 -53 -61 -36 -122 -107 -149 -176 l-23 -56 -3
-1171 -2 -1171 -66 -6 c-81 -6 -133 -38 -163 -100 -21 -44 -22 -46 -19 -753
l3 -709 23 -47 c37 -74 96 -134 170 -170 l66 -33 221 -3 221 -4 11 -48 c78
-327 379 -585 720 -618 248 -24 473 53 650 222 115 108 187 225 229 366 l22
75 1680 3 1680 2 12 -52 c70 -299 337 -549 650 -608 73 -14 234 -14 312 0 303
55 572 311 648 618 l11 42 172 0 c194 0 250 10 327 60 83 54 141 143 155 241
19 129 -131 1451 -221 1944 -215 1180 -738 1787 -1664 1931 -82 13 -208 18
-574 21 -523 5 -526 5 -585 -62 -44 -50 -51 -91 -51 -282 l0 -173 -420 0 -420
0 0 813 c0 876 -1 880 -53 970 -36 61 -107 122 -176 149 l-56 23 -1080 1
c-594 1 -1106 -2 -1137 -7z m2122 -1159 l0 -790 -324 0 -325 0 -3 253 -3 252
-28 57 c-52 105 -145 177 -257 198 -31 6 -270 10 -581 10 l-529 0 0 405 0 405
1025 0 1025 0 0 -790z m-1030 -1525 l0 -1125 -1005 0 -1005 0 0 1125 0 1125
1005 0 1005 0 0 -1125z m3210 40 c0 -898 -2 -861 49 -919 46 -52 20 -51 801
-56 l725 -5 17 -120 c25 -178 75 -565 98 -770 19 -170 70 -696 70 -722 0 -10
-36 -13 -147 -13 l-148 0 -28 74 c-96 256 -329 453 -608 512 -91 19 -294 14
-384 -11 -93 -25 -233 -99 -312 -165 -112 -93 -217 -245 -253 -367 l-13 -43
-224 0 -223 0 0 1720 0 1720 290 0 290 0 0 -835z m646 685 c319 -151 569 -440
721 -835 68 -175 140 -432 125 -447 -4 -4 -258 -7 -563 -6 l-554 3 -3 680 c-1
374 0 685 2 692 6 14 166 -37 272 -87z m-1606 -1110 l0 -740 -935 0 -935 0 0
740 0 740 935 0 935 0 0 -740z m0 -1650 l0 -530 -1284 0 -1284 0 -12 38 c-7
20 -33 78 -59 127 -37 72 -65 109 -141 186 -110 111 -192 163 -331 210 -81 28
-111 33 -224 36 -150 6 -230 -8 -349 -57 -205 -86 -378 -260 -456 -463 l-29
-72 -175 -3 -176 -2 0 530 0 530 2260 0 2260 0 0 -530z m-3265 -315 c287 -75
429 -378 300 -641 -85 -174 -285 -279 -470 -247 -227 39 -385 224 -385 450 1
290 279 510 555 438z m4977 4 c132 -27 259 -125 317 -244 135 -274 -31 -594
-336 -647 -225 -38 -449 110 -508 337 -82 317 207 621 527 554z"/>
</g>
</svg>
